<mxfile host="app.diagrams.net" modified="2023-04-27T06:54:37.311Z" agent="Mozilla/5.0 (Windows NT 10.0; Win64; x64) AppleWebKit/537.36 (KHTML, like Gecko) Chrome/112.0.0.0 Safari/537.36" etag="yfLqY4EBMKG7utkWKhKI" version="21.2.2" type="onedrive">
  <diagram name="Pagina-1" id="c-7MjnrmxP9N9Toj8CTx">
    <mxGraphModel grid="1" page="1" gridSize="10" guides="1" tooltips="1" connect="1" arrows="1" fold="1" pageScale="1" pageWidth="827" pageHeight="1169" math="0" shadow="0">
      <root>
        <mxCell id="0" />
        <mxCell id="1" parent="0" />
        <mxCell id="eZq8DhZKBFWsf5bk8Q1W-1" value="" style="rounded=0;whiteSpace=wrap;html=1;" vertex="1" parent="1">
          <mxGeometry x="40" y="600" width="720" height="450" as="geometry" />
        </mxCell>
        <mxCell id="eZq8DhZKBFWsf5bk8Q1W-2" value="" style="rounded=0;whiteSpace=wrap;html=1;fillColor=#000000;" vertex="1" parent="1">
          <mxGeometry x="40" y="600" width="720" height="60" as="geometry" />
        </mxCell>
        <mxCell id="eZq8DhZKBFWsf5bk8Q1W-3" value="logo IL NOSTRO SITO" style="text;html=1;strokeColor=none;fillColor=none;align=center;verticalAlign=middle;whiteSpace=wrap;rounded=0;fontColor=#FFFFFF;fontSize=19;fontStyle=0;fontFamily=Verdana;" vertex="1" parent="1">
          <mxGeometry x="50" y="607.5" width="220" height="45" as="geometry" />
        </mxCell>
        <mxCell id="eZq8DhZKBFWsf5bk8Q1W-4" value="Home Catalogo Login" style="text;html=1;strokeColor=none;fillColor=none;align=center;verticalAlign=middle;whiteSpace=wrap;rounded=0;fontColor=#FFFFFF;fontSize=14;" vertex="1" parent="1">
          <mxGeometry x="570" y="622.5" width="180" height="30" as="geometry" />
        </mxCell>
        <mxCell id="eZq8DhZKBFWsf5bk8Q1W-5" value="&#xa;&#xa;&#xa;" style="rounded=0;whiteSpace=wrap;html=1;fillColor=#000000;" vertex="1" parent="1">
          <mxGeometry x="40" y="990" width="720" height="60" as="geometry" />
        </mxCell>
        <mxCell id="eZq8DhZKBFWsf5bk8Q1W-6" value="Tutti i diritti sno riservati al IL NOSTRO SITO" style="text;html=1;strokeColor=none;fillColor=none;align=center;verticalAlign=middle;whiteSpace=wrap;rounded=0;fontColor=#FFFFFF;" vertex="1" parent="1">
          <mxGeometry x="40" y="1020" width="270" height="30" as="geometry" />
        </mxCell>
        <mxCell id="eZq8DhZKBFWsf5bk8Q1W-7" value="Contattaci&lt;br&gt;&amp;nbsp; &amp;nbsp; &amp;nbsp; &amp;nbsp; &amp;nbsp; +39 123456" style="text;html=1;strokeColor=none;fillColor=none;align=center;verticalAlign=middle;whiteSpace=wrap;rounded=0;fontColor=#FFFFFF;" vertex="1" parent="1">
          <mxGeometry x="650" y="990" width="100" height="60" as="geometry" />
        </mxCell>
        <mxCell id="eZq8DhZKBFWsf5bk8Q1W-8" value="" style="shape=mxgraph.signs.tech.telephone_3;html=1;pointerEvents=1;fillColor=#FFFFFF;strokeColor=none;verticalLabelPosition=bottom;verticalAlign=top;align=center;sketch=0;fontColor=#FFFFFF;" vertex="1" parent="1">
          <mxGeometry x="670" y="1020" width="10" height="10" as="geometry" />
        </mxCell>
        <mxCell id="eZq8DhZKBFWsf5bk8Q1W-9" style="edgeStyle=orthogonalEdgeStyle;rounded=0;orthogonalLoop=1;jettySize=auto;html=1;exitX=0.5;exitY=1;exitDx=0;exitDy=0;" edge="1" parent="1" source="eZq8DhZKBFWsf5bk8Q1W-1" target="eZq8DhZKBFWsf5bk8Q1W-1">
          <mxGeometry relative="1" as="geometry" />
        </mxCell>
        <mxCell id="eZq8DhZKBFWsf5bk8Q1W-10" value="Gestione F.A.Q." style="text;html=1;strokeColor=none;fillColor=none;align=center;verticalAlign=middle;whiteSpace=wrap;rounded=0;fontSize=24;fontStyle=1" vertex="1" parent="1">
          <mxGeometry x="275" y="690" width="250" height="30" as="geometry" />
        </mxCell>
        <mxCell id="eZq8DhZKBFWsf5bk8Q1W-14" value="Domanda" style="text;html=1;strokeColor=none;fillColor=none;align=center;verticalAlign=middle;whiteSpace=wrap;rounded=0;fontSize=14;" vertex="1" parent="1">
          <mxGeometry x="125" y="740" width="70" height="30" as="geometry" />
        </mxCell>
        <mxCell id="eZq8DhZKBFWsf5bk8Q1W-15" value="Risposta" style="text;html=1;strokeColor=none;fillColor=none;align=center;verticalAlign=middle;whiteSpace=wrap;rounded=0;fontSize=14;" vertex="1" parent="1">
          <mxGeometry x="130" y="790" width="60" height="30" as="geometry" />
        </mxCell>
        <mxCell id="eZq8DhZKBFWsf5bk8Q1W-17" value="Domanda" style="text;html=1;strokeColor=none;fillColor=none;align=center;verticalAlign=middle;whiteSpace=wrap;rounded=0;fontSize=14;" vertex="1" parent="1">
          <mxGeometry x="125" y="840" width="70" height="30" as="geometry" />
        </mxCell>
        <mxCell id="eZq8DhZKBFWsf5bk8Q1W-18" value="Risposta" style="text;html=1;strokeColor=none;fillColor=none;align=center;verticalAlign=middle;whiteSpace=wrap;rounded=0;fontSize=14;" vertex="1" parent="1">
          <mxGeometry x="130" y="890" width="60" height="30" as="geometry" />
        </mxCell>
        <mxCell id="WASYsp8bYWOaSyW8Swoo-1" value="" style="endArrow=classic;html=1;rounded=0;" edge="1" parent="1">
          <mxGeometry width="50" height="50" relative="1" as="geometry">
            <mxPoint x="100" y="680" as="sourcePoint" />
            <mxPoint x="60" y="680" as="targetPoint" />
          </mxGeometry>
        </mxCell>
        <mxCell id="WASYsp8bYWOaSyW8Swoo-2" value="Torna all&#39;Hub" style="text;html=1;strokeColor=none;fillColor=none;align=center;verticalAlign=middle;whiteSpace=wrap;rounded=0;" vertex="1" parent="1">
          <mxGeometry x="100" y="660" width="90" height="30" as="geometry" />
        </mxCell>
      </root>
    </mxGraphModel>
  </diagram>
</mxfile>
